<?xml version="1.0" standalone="no"?>
<!DOCTYPE svg PUBLIC "-//W3C//DTD SVG 20010904//EN"
 "http://www.w3.org/TR/2001/REC-SVG-20010904/DTD/svg10.dtd">
<svg version="1.0" xmlns="http://www.w3.org/2000/svg"
 width="474.000000pt" height="474.000000pt" viewBox="0 0 474.000000 474.000000"
 preserveAspectRatio="xMidYMid meet">
<metadata>
Created by potrace 1.14, written by Peter Selinger 2001-2017
</metadata>
<g transform="translate(0.000000,474.000000) scale(0.100000,-0.100000)"
fill="#000000" stroke="none">
<path d="M1613 4356 c-28 -12 -55 -25 -59 -29 -4 -4 -15 -7 -24 -7 -29 0 -194
-117 -258 -183 -143 -146 -212 -285 -248 -499 -48 -291 31 -538 243 -753 78
-79 131 -121 216 -172 54 -33 74 -40 84 -31 10 8 12 7 8 -4 -5 -11 9 -24 48
-45 63 -34 238 -108 347 -147 51 -18 194 -55 198 -52 1 2 -53 59 -121 127
-139 141 -150 154 -231 264 -32 44 -63 79 -68 77 -5 -1 -7 2 -3 8 3 5 -10 38
-30 73 -51 86 -51 86 -79 142 -14 28 -28 62 -31 76 -5 22 -11 25 -43 23 -20
-1 -31 0 -24 3 6 2 13 14 13 26 1 17 2 18 6 5 2 -10 9 -18 14 -18 10 0 10 21
-1 65 l-7 30 -8 -28 c-6 -22 -10 -25 -21 -16 -16 13 -20 54 -4 44 5 -3 7 -12
3 -20 -3 -8 -2 -15 1 -15 18 0 24 53 13 105 -8 39 -13 51 -18 38 -4 -11 -7 -3
-7 22 0 22 -3 108 -7 191 -10 187 12 350 65 488 10 28 5 50 -9 41 -5 -2 -6
-17 -4 -32 4 -22 2 -25 -6 -13 -7 10 -11 11 -11 3 0 -7 -4 -13 -10 -13 -5 0
-10 8 -10 17 0 9 -2 14 -5 11 -4 -3 -3 -18 1 -33 5 -19 9 -23 15 -14 4 7 10
11 13 8 7 -7 -16 -59 -26 -59 -5 0 -8 -24 -8 -53 0 -29 -4 -57 -9 -63 -6 -5
-13 -62 -17 -127 -4 -64 -9 -115 -12 -112 -3 2 -5 57 -4 120 1 68 -3 115 -8
115 -6 0 -10 -3 -10 -7 0 -5 -4 -25 -9 -45 -5 -21 -5 -36 -1 -33 9 5 20 -94
20 -176 0 -33 4 -59 9 -59 5 0 8 -11 7 -25 0 -14 -4 -25 -8 -25 -7 0 -17 72
-21 155 l-2 50 -173 5 c-167 5 -172 4 -172 -15 -1 -20 -30 -68 -30 -49 0 5 -5
2 -10 -6 -6 -10 -8 -2 -3 25 3 22 10 45 16 50 7 7 8 6 3 -2 -3 -6 -3 -19 1
-29 4 -12 10 -1 20 36 8 34 10 57 4 64 -6 6 -6 18 -2 25 6 10 10 9 14 -3 7
-17 37 -22 37 -6 0 6 10 10 21 10 17 0 20 4 15 23 -3 12 -6 25 -6 30 0 4 -6 7
-14 7 -8 0 -16 -12 -18 -27 -2 -14 -8 -28 -15 -30 -11 -4 -9 7 13 70 7 20 20
22 28 5 3 -7 3 -2 0 12 -3 15 2 33 11 45 9 11 13 13 9 5 -7 -13 -5 -13 8 -2 9
8 14 20 11 28 -4 10 0 12 11 8 9 -3 16 -10 16 -15 0 -5 4 -9 9 -9 14 0 22 30
12 49 -13 23 18 64 42 55 18 -7 23 -24 7 -24 -5 0 -10 5 -10 10 0 17 -15 11
-29 -12 -12 -20 -12 -21 0 -12 8 6 28 11 44 10 29 -2 30 -1 30 35 0 20 -4 35
-9 32 -5 -4 -6 -1 -2 6 4 6 17 9 29 6 12 -2 16 -2 9 1 -16 7 3 34 24 34 20 0
28 -21 13 -32 -12 -8 -11 -9 1 -5 8 2 15 12 16 23 2 41 5 45 34 55 17 6 27 16
23 22 -4 7 0 8 11 4 10 -4 15 -3 11 3 -3 6 1 10 10 10 15 0 24 3 82 34 33 17
49 10 31 -14 -8 -12 -8 -11 -3 5 4 14 3 17 -5 9 -6 -7 -7 -19 -2 -33 7 -21 9
-20 22 18 7 23 17 41 22 41 4 0 8 5 8 10 0 13 -6 12 -67 -14z m-263 -218 c0
-13 -23 -5 -28 10 -2 7 2 10 12 6 9 -3 16 -11 16 -16z m-80 -79 c0 -14 -17
-10 -23 5 -4 10 -1 13 9 9 7 -3 14 -9 14 -14z m-158 -384 l-8 -50 -7 35 c-5
21 -4 36 3 38 5 2 10 11 10 20 0 8 2 13 4 11 3 -3 2 -27 -2 -54z m335 -12 c-3
-10 -5 -4 -5 12 0 17 2 24 5 18 2 -7 2 -21 0 -30z m-381 -41 c-12 -11 -18 7
-10 30 l8 23 4 -23 c2 -13 1 -26 -2 -30z m381 -24 c-3 -8 -6 -5 -6 6 -1 11 2
17 5 13 3 -3 4 -12 1 -19z m-410 -130 c-3 -8 -6 -5 -6 6 -1 11 2 17 5 13 3 -3
4 -12 1 -19z m511 -113 c-3 -3 -9 2 -12 12 -6 14 -5 15 5 6 7 -7 10 -15 7 -18z
m-458 -114 c7 -14 7 -22 -2 -27 -6 -4 -8 -3 -4 4 3 6 2 13 -4 17 -10 6 -14 25
-5 25 2 0 9 -9 15 -19z m21 -44 c-10 -9 -11 -8 -5 6 3 10 9 15 12 12 3 -3 0
-11 -7 -18z m140 -250 c-10 -9 -11 -8 -5 6 3 10 9 15 12 12 3 -3 0 -11 -7 -18z
m87 -56 c10 -6 10 -10 -3 -21 -13 -11 -14 -10 -8 5 5 15 3 17 -11 12 -10 -4
-15 -3 -11 3 7 12 16 12 33 1z m92 -85 c-7 -7 -13 -7 -20 0 -6 6 -3 10 10 10
13 0 16 -4 10 -10z m215 -162 c20 -8 35 -17 32 -20 -3 -3 -22 4 -44 15 -46 24
-40 27 12 5z"/>
<path d="M3060 4370 c0 -5 3 -10 8 -10 7 0 21 -27 41 -83 7 -17 16 -25 22 -21
6 3 7 9 2 13 -9 7 -33 57 -33 71 0 14 43 2 52 -15 5 -8 20 -15 33 -15 19 0 23
-4 19 -17 -5 -14 -4 -15 4 -4 8 11 15 10 38 -5 16 -11 40 -29 54 -41 14 -13
32 -23 41 -23 16 0 89 -67 89 -82 0 -4 -9 -8 -20 -8 -11 0 -20 -6 -20 -14 0
-14 43 -17 56 -3 10 9 34 -4 34 -19 0 -8 9 -19 20 -26 11 -7 20 -19 20 -27 0
-12 -3 -12 -12 -3 -13 13 -28 16 -28 5 0 -5 11 -13 25 -19 18 -9 25 -9 28 0 2
6 9 0 16 -13 10 -18 10 -29 1 -50 -9 -21 -9 -24 1 -13 7 6 16 12 19 12 11 0
34 -53 31 -72 -1 -9 3 -19 8 -23 7 -4 9 1 5 12 -5 14 -4 15 4 4 6 -8 8 -21 4
-29 -3 -10 -1 -13 6 -8 14 9 15 -3 2 -24 -8 -13 -10 -12 -10 3 0 9 -5 17 -11
17 -6 0 -9 -7 -5 -15 3 -8 3 -22 0 -30 -5 -12 -33 -15 -164 -15 l-158 0 -7
103 c-3 56 -9 110 -11 120 -6 18 -34 24 -34 7 0 -5 6 -10 13 -10 10 0 12 -22
11 -87 -1 -50 2 -77 6 -63 10 35 17 -123 9 -219 -5 -71 -6 -68 -7 42 -1 70 -6
117 -12 117 -5 0 -10 25 -10 56 0 30 -5 64 -10 75 -7 13 -7 19 0 19 15 0 12
50 -4 56 -8 3 -19 36 -26 80 -8 48 -16 70 -21 62 -7 -10 -9 -10 -9 2 -2 42
-13 96 -22 105 -14 13 -2 -53 22 -125 10 -30 22 -73 25 -95 4 -22 10 -44 14
-50 19 -32 22 -426 4 -495 -23 -88 -25 -102 -11 -94 7 4 6 -1 -3 -12 -9 -10
-26 -53 -38 -94 -12 -41 -31 -92 -42 -113 -10 -22 -16 -44 -12 -50 3 -7 3 -9
-1 -5 -11 10 -68 -103 -61 -121 3 -8 3 -12 -1 -8 -4 4 -20 -12 -35 -35 -60
-91 -134 -192 -173 -237 -17 -20 -85 -91 -151 -159 -67 -67 -118 -122 -115
-122 23 0 258 76 357 115 112 45 203 90 203 101 0 3 -5 2 -12 -2 -6 -4 -8 -3
-5 4 4 5 15 8 25 5 10 -2 24 3 31 11 8 9 20 16 28 16 8 0 11 5 7 12 -4 6 -3 8
4 4 14 -9 84 33 75 47 -3 6 -1 7 6 3 7 -4 39 15 79 46 290 229 403 508 347
854 -33 203 -111 352 -262 502 -51 50 -100 92 -107 92 -8 0 -16 4 -18 9 -4 14
-197 111 -218 111 -11 0 -22 5 -25 10 -3 6 -10 10 -16 10 -5 0 -9 -4 -9 -10z
m607 -627 c3 -55 -10 -55 -22 0 -9 36 -8 43 5 43 11 0 16 -13 17 -43z m-420
-145 c-2 -35 -3 -7 -3 62 0 69 1 97 3 63 2 -35 2 -91 0 -125z m93 102 c0 -40
-4 -70 -10 -70 -6 0 -10 30 -10 70 0 40 4 70 10 70 6 0 10 -30 10 -70z m290
23 c0 -13 -4 -23 -10 -23 -5 0 -10 17 -10 38 0 27 3 33 10 22 5 -8 10 -25 10
-37z m-323 -245 c-3 -8 -6 -5 -6 6 -1 11 2 17 5 13 3 -3 4 -12 1 -19z m-67
-58 c0 -5 -4 -10 -10 -10 -5 0 -10 5 -10 10 0 6 5 10 10 10 6 0 10 -4 10 -10z
m447 -92 c-3 -7 -5 -2 -5 12 0 14 2 19 5 13 2 -7 2 -19 0 -25z m-491 -44 c-4
-20 -10 -34 -12 -31 -3 3 -2 21 2 41 3 21 9 35 11 32 3 -3 2 -21 -1 -42z m-16
-57 c0 -5 -4 -5 -10 -2 -5 3 -10 14 -10 23 0 15 2 15 10 2 5 -8 10 -19 10 -23z
m-13 -49 c-3 -8 -6 -5 -6 6 -1 11 2 17 5 13 3 -3 4 -12 1 -19z m446 -28 c-6
-23 -5 -24 12 -10 17 14 17 14 4 -7 -17 -28 -22 -22 -25 29 -1 26 1 36 7 27 4
-8 5 -25 2 -39z m37 15 c0 -5 -5 -3 -10 5 -5 8 -10 20 -10 25 0 6 5 3 10 -5 5
-8 10 -19 10 -25z m-543 -131 c2 -13 1 -15 -4 -4 -3 8 -11 19 -17 23 -7 6 -6
7 4 4 8 -2 16 -12 17 -23z m-74 -99 c-3 -9 -8 -14 -10 -11 -3 3 -2 9 2 15 9
16 15 13 8 -4z m-18 -35 c3 -5 1 -10 -4 -10 -6 0 -11 5 -11 10 0 6 2 10 4 10
3 0 8 -4 11 -10z m404 -11 c-7 -4 -8 -12 -4 -20 5 -8 -2 -5 -16 6 -13 11 -25
20 -26 21 -2 0 11 1 27 1 17 0 26 -4 19 -8z m-79 -79 c8 -5 11 -10 5 -10 -5 0
-17 5 -25 10 -8 5 -10 10 -5 10 6 0 17 -5 25 -10z m-313 -196 c-3 -3 -12 -4
-19 -1 -8 3 -5 6 6 6 11 1 17 -2 13 -5z m-320 -101 c-14 -14 -19 -15 -29 -4
-11 10 -10 11 3 6 10 -4 20 -2 24 4 3 6 9 11 13 11 3 0 -1 -8 -11 -17z"/>
<path d="M1610 4288 c0 -7 -7 -26 -15 -42 -8 -15 -12 -33 -9 -38 9 -14 24 11
24 40 0 13 4 21 9 18 5 -4 7 3 4 14 -6 22 -13 26 -13 8z"/>
<path d="M3135 4290 c3 -5 10 -10 16 -10 5 0 9 5 9 10 0 6 -7 10 -16 10 -8 0
-12 -4 -9 -10z"/>
<path d="M3181 4224 c0 -11 3 -14 6 -6 3 7 2 16 -1 19 -3 4 -6 -2 -5 -13z"/>
<path d="M3367 4154 c-8 -8 1 -24 14 -24 5 0 9 7 9 15 0 15 -12 20 -23 9z"/>
<path d="M3360 4110 c0 -5 5 -10 10 -10 6 0 10 5 10 10 0 6 -4 10 -10 10 -5 0
-10 -4 -10 -10z"/>
<path d="M1474 4089 c-3 -6 -1 -16 5 -22 8 -8 11 -5 11 11 0 24 -5 28 -16 11z"/>
<path d="M3450 4064 c0 -8 5 -12 10 -9 6 3 10 10 10 16 0 5 -4 9 -10 9 -5 0
-10 -7 -10 -16z"/>
<path d="M1220 3996 c0 -9 5 -16 10 -16 6 0 10 4 10 9 0 6 -4 13 -10 16 -5 3
-10 -1 -10 -9z"/>
<path d="M3526 3985 c-9 -26 -7 -32 5 -12 6 10 9 21 6 23 -2 3 -7 -2 -11 -11z"/>
<path d="M3321 3804 c0 -11 3 -14 6 -6 3 7 2 16 -1 19 -3 4 -6 -2 -5 -13z"/>
<path d="M735 3720 c-94 -177 -146 -340 -166 -518 -25 -221 46 -439 193 -593
140 -147 327 -231 596 -269 81 -12 176 -28 212 -36 168 -38 352 -114 466 -192
69 -47 161 -141 189 -194 11 -21 23 -38 27 -38 5 0 8 -7 8 -16 0 -8 4 -13 9
-10 5 4 7 -3 4 -14 -3 -11 -1 -26 5 -33 27 -34 31 -209 7 -282 -25 -74 -81
-154 -118 -168 -9 -3 -17 -10 -17 -15 0 -13 -190 -102 -232 -108 -30 -5 -44 0
-89 30 -48 32 -61 36 -117 36 -120 0 -119 -3 37 -158 75 -75 152 -155 169
-177 17 -22 58 -74 90 -115 33 -42 70 -96 84 -120 14 -25 31 -44 38 -42 6 1 9
-2 5 -8 -3 -5 4 -25 17 -42 40 -56 142 -242 178 -327 19 -44 39 -81 44 -81 4
0 6 9 3 20 -3 13 -1 18 6 13 7 -4 8 0 4 11 -4 10 -3 15 3 11 6 -4 13 7 16 24
4 17 10 31 15 31 5 0 6 8 2 17 -3 10 -3 15 2 11 10 -9 76 122 68 135 -4 6 -1
7 7 2 9 -6 10 -1 5 16 -4 16 -3 20 3 11 6 -10 21 7 52 60 39 66 132 208 152
233 5 6 36 46 70 90 35 44 87 106 118 138 30 32 55 65 55 72 0 8 4 17 9 22 5
5 6 2 1 -6 -15 -26 12 -6 90 66 l78 72 -27 11 c-15 5 -54 10 -86 10 -50 0 -65
-5 -111 -36 -45 -30 -59 -35 -90 -30 -105 17 -286 133 -325 209 -8 15 -19 25
-24 22 -6 -4 -7 1 -3 11 5 12 3 15 -6 9 -10 -6 -11 -2 -6 15 5 17 4 21 -5 15
-8 -5 -11 -4 -6 3 3 6 0 30 -9 54 -17 49 -20 112 -5 103 9 -6 13 22 14 92 0
12 4 19 9 16 4 -2 5 8 2 24 -5 21 -4 24 4 13 9 -13 11 -13 11 1 0 8 11 38 25
64 13 27 21 52 16 55 -5 3 -2 12 7 20 14 13 15 12 9 -5 -4 -11 8 -2 26 20 87
107 212 192 374 255 18 7 30 16 27 21 -3 5 2 6 11 3 9 -4 41 3 73 14 70 25
182 49 326 68 60 7 139 21 175 30 317 80 556 302 617 574 24 108 15 332 -19
451 -33 118 -82 242 -126 319 l-36 65 -3 -35 c-12 -148 -78 -371 -163 -549
-32 -68 -56 -128 -52 -134 3 -6 1 -7 -5 -3 -6 4 -27 -18 -48 -51 -52 -79 -134
-181 -180 -224 -62 -57 -217 -169 -279 -201 -16 -8 -75 -39 -130 -68 -55 -29
-136 -71 -180 -93 -44 -22 -109 -57 -144 -79 -34 -21 -65 -38 -68 -38 -11 0
-133 -98 -185 -150 -61 -60 -128 -161 -128 -194 0 -12 -5 -28 -11 -36 -9 -12
-10 -10 -6 8 3 13 3 21 -1 17 -4 -4 -7 -31 -8 -61 0 -29 -3 -57 -7 -61 -14
-13 -21 9 -20 62 1 35 -3 55 -12 58 -7 3 -15 22 -19 41 -4 20 -10 36 -15 36
-4 0 -28 29 -53 64 -51 70 -136 146 -242 214 -80 51 -103 62 -91 42 5 -9 4
-11 -4 -6 -6 4 -9 11 -6 16 7 11 -135 82 -152 76 -8 -3 -12 -2 -9 3 7 11 -11
26 -43 36 -13 4 -62 29 -109 56 -47 27 -87 49 -90 49 -8 0 -101 59 -177 113
-280 199 -517 632 -563 1028 l-8 64 -29 -55z m3268 -55 c4 -8 2 -17 -3 -20 -6
-4 -10 3 -10 14 0 25 6 27 13 6z m-3246 -17 c-3 -8 -6 -5 -6 6 -1 11 2 17 5
13 3 -3 4 -12 1 -19z m-20 -55 c-3 -10 -5 -4 -5 12 0 17 2 24 5 18 2 -7 2 -21
0 -30z m3264 4 c-8 -8 -11 -7 -11 4 0 20 13 34 18 19 3 -7 -1 -17 -7 -23z m25
-3 c-4 -9 -9 -15 -11 -12 -3 3 -3 13 1 22 4 9 9 15 11 12 3 -3 3 -13 -1 -22z
m-3269 -41 c-3 -10 -5 -4 -5 12 0 17 2 24 5 18 2 -7 2 -21 0 -30z m3243 11 c0
-17 -22 -14 -28 4 -2 7 3 12 12 12 9 0 16 -7 16 -16z m46 0 c-3 -9 -6 -18 -6
-20 0 -2 -4 -4 -9 -4 -5 0 -7 9 -4 20 3 11 10 20 15 20 6 0 7 -7 4 -16z
m-3354 -49 c-2 -14 -8 -25 -13 -25 -10 0 -11 12 -3 34 10 25 22 19 16 -9z m85
-12 c-3 -10 -5 -4 -5 12 0 17 2 24 5 18 2 -7 2 -21 0 -30z m3218 -2 c0 -22 -2
-39 -5 -39 -21 2 -29 -6 -33 -29 -2 -16 -3 -3 -3 27 0 30 1 45 4 33 4 -28 22
-31 22 -4 0 17 9 51 14 51 1 0 1 -18 1 -39z m-3248 -33 c-3 -8 -6 -5 -6 6 -1
11 2 17 5 13 3 -3 4 -12 1 -19z m-67 2 c0 -5 -4 -10 -10 -10 -5 0 -10 5 -10
10 0 6 5 10 10 10 6 0 10 -4 10 -10z m3417 -52 c-3 -8 -6 -5 -6 6 -1 11 2 17
5 13 3 -3 4 -12 1 -19z m-3290 -30 c-3 -7 -5 -2 -5 12 0 14 2 19 5 13 2 -7 2
-19 0 -25z m3299 -25 c-11 -11 -17 4 -9 23 7 18 8 18 11 1 2 -10 1 -21 -2 -24z
m-3486 -50 c-11 -17 -11 -17 -6 0 3 10 7 26 7 35 1 15 2 15 6 0 2 -10 -1 -25
-7 -35z m211 20 c-12 -20 -14 -14 -5 12 4 9 9 14 11 11 3 -2 0 -13 -6 -23z
m3286 -5 c-3 -8 -6 -5 -6 6 -1 11 2 17 5 13 3 -3 4 -12 1 -19z m-3267 -13 c0
-8 -4 -15 -10 -15 -5 0 -7 7 -4 15 4 8 8 15 10 15 2 0 4 -7 4 -15z m3057 -10
c0 -8 -4 -15 -9 -15 -10 0 -11 14 -1 23 9 10 10 9 10 -8z m9 -55 c-1 -31 -11
-40 -19 -17 -3 9 12 47 19 47 1 0 1 -13 0 -30z m-31 -20 c3 -5 1 -10 -4 -10
-6 0 -11 5 -11 10 0 6 2 10 4 10 3 0 8 -4 11 -10z m-3288 -82 c-3 -7 -5 -2 -5
12 0 14 2 19 5 13 2 -7 2 -19 0 -25z m3206 -48 c3 -11 1 -18 -4 -14 -5 3 -9
12 -9 20 0 20 7 17 13 -6z m37 -15 c0 -5 -5 -3 -10 5 -5 8 -10 20 -10 25 0 6
5 3 10 -5 5 -8 10 -19 10 -25z m-2862 -50 c-3 -3 -9 2 -12 12 -6 14 -5 15 5 6
7 -7 10 -15 7 -18z m27 -54 c-6 -5 -25 10 -25 20 0 5 6 4 14 -3 8 -7 12 -15
11 -17z m-388 -23 c-3 -8 -6 -5 -6 6 -1 11 2 17 5 13 3 -3 4 -12 1 -19z m3054
-85 c-12 -20 -14 -14 -5 12 4 9 9 14 11 11 3 -2 0 -13 -6 -23z m-2598 10 c-7
-2 -19 -2 -25 0 -7 3 -2 5 12 5 14 0 19 -2 13 -5z m2592 -62 c-6 -5 -25 10
-25 20 0 5 6 4 14 -3 8 -7 12 -15 11 -17z m-95 -45 c0 -3 -4 -8 -10 -11 -5 -3
-10 -1 -10 4 0 6 5 11 10 11 6 0 10 -2 10 -4z m474 -51 c-4 -8 -11 -15 -16
-15 -6 0 -5 6 2 15 7 8 14 15 16 15 2 0 1 -7 -2 -15z m-569 -55 c-3 -5 -12
-10 -18 -10 -7 0 -6 4 3 10 19 12 23 12 15 0z m-1348 -470 c14 -11 22 -20 18
-20 -4 0 -18 9 -32 20 -14 11 -22 20 -18 20 4 0 18 -9 32 -20z m258 -833 c8
-36 70 -137 85 -137 6 0 10 -7 10 -15 0 -9 6 -12 17 -8 10 4 14 2 10 -4 -13
-21 84 -80 173 -104 l45 -12 -35 -9 c-19 -5 -68 -9 -108 -9 -80 0 -138 21
-184 65 l-27 26 -46 -35 c-26 -19 -57 -38 -71 -41 -13 -3 -22 -9 -20 -13 5 -8
-107 -4 -164 7 l-45 8 56 17 c62 19 156 78 151 97 -1 6 2 9 7 6 11 -7 75 65
96 107 8 16 17 44 21 63 7 40 20 36 29 -9z m560 -103 c-26 -20 -55 -36 -55
-30 0 5 63 46 70 46 3 -1 -4 -8 -15 -16z m-549 -248 c38 -36 90 -71 102 -68 8
2 11 -1 7 -7 -3 -6 0 -11 7 -11 8 0 22 -6 31 -13 16 -11 14 -17 -28 -74 -25
-35 -45 -65 -45 -67 0 -2 -18 -37 -41 -76 -22 -39 -42 -84 -44 -98 -1 -15 -3
-29 -4 -32 -1 -3 -13 19 -26 48 -16 33 -29 50 -37 46 -7 -4 -8 -3 -4 5 10 16
-3 53 -16 45 -8 -5 -9 -1 -5 10 5 13 3 17 -7 13 -10 -4 -13 -1 -10 8 6 14 -54
112 -81 135 -23 19 -19 25 30 50 25 13 45 27 45 32 0 4 7 8 14 8 8 0 27 11 42
25 15 14 24 25 20 25 -4 0 -5 4 -1 10 6 10 33 3 51 -14z"/>
<path d="M316 2900 c-3 -14 -13 -54 -22 -90 -25 -103 -30 -357 -10 -455 10
-44 21 -89 26 -100 5 -11 20 -45 33 -75 76 -174 258 -322 472 -385 79 -24 239
-24 315 -1 30 9 63 18 73 21 39 9 57 17 57 24 0 4 15 7 34 8 18 1 49 8 67 16
19 8 61 25 94 38 33 12 99 42 147 66 106 52 171 62 251 39 105 -31 167 -107
168 -209 2 -142 -79 -215 -267 -239 l-86 -11 6 -39 c13 -77 65 -122 160 -138
156 -25 274 76 307 264 14 83 0 190 -36 264 -38 80 -131 165 -230 212 -146 70
-300 100 -510 100 -128 0 -218 14 -326 50 -75 26 -191 83 -239 119 -67 50
-183 163 -246 241 -16 19 -31 37 -35 40 -8 7 -160 209 -180 240 l-17 25 -6
-25z m589 -628 c-3 -3 -11 0 -18 7 -9 10 -8 11 6 5 10 -3 15 -9 12 -12z"/>
<path d="M4355 2839 c-174 -250 -376 -455 -513 -520 -162 -78 -297 -109 -470
-109 -365 0 -636 -115 -735 -311 -91 -181 -33 -434 116 -511 50 -25 155 -28
209 -5 65 27 108 88 108 152 0 8 -23 15 -62 19 -118 13 -179 36 -229 86 -71
71 -84 160 -36 255 41 82 110 119 222 119 73 0 87 -3 155 -38 102 -53 231
-106 241 -101 4 3 9 1 11 -3 3 -8 175 -64 233 -77 149 -31 232 -29 354 12 127
43 201 86 288 170 94 90 150 184 193 318 35 110 39 323 10 480 -12 66 -26 126
-30 134 -5 9 -25 -14 -65 -70z m68 -104 c-3 -9 -8 -14 -10 -11 -3 3 -2 9 2 15
9 16 15 13 8 -4z m-135 -35 c-7 -10 -14 -17 -17 -15 -4 4 18 35 25 35 2 0 -1
-9 -8 -20z"/>
<path d="M2371 1874 c0 -11 3 -14 6 -6 3 7 2 16 -1 19 -3 4 -6 -2 -5 -13z"/>
</g>
</svg>
